<svg xmlns="http://www.w3.org/2000/svg" width="214.667" height="214.667" preserveAspectRatio="xMidYMid meet" version="1.0" viewBox="0 0 161 161"><g fill="#000" stroke="none"><path d="M422 1187 c-234 -235 -362 -369 -362 -382 0 -28 718 -745 745 -745 28 0 745 718 745 745 0 28 -718 745 -745 745 -13 0 -148 -127 -383 -363z m735 -29 c216 -215 333 -340 333 -353 0 -20 -665 -695 -685 -695 -13 0 -695 682 -695 695 0 20 674 685 695 685 13 0 137 -118 352 -332z" transform="translate(0.000000,161.000000) scale(0.100000,-0.100000)"/><path d="M701 1128 c-57 -83 -106 -158 -108 -167 -9 -34 21 -44 78 -28 l51 15 -4 -52 c-5 -65 -34 -124 -95 -200 -27 -32 -57 -69 -68 -82 l-19 -24 42 -42 c23 -23 43 -40 44 -38 2 3 25 28 50 57 l47 51 3 -106 3 -107 80 0 80 0 3 272 2 272 45 -16 c49 -16 72 -13 81 12 6 14 -74 139 -186 296 l-26 37 -103 -150z" transform="translate(0.000000,161.000000) scale(0.100000,-0.100000)"/></g></svg>